# xmcd CD database file
#
# Track frame offsets:
#	150
#	86879
#	91925
#	173476
#	234418
#
# Disc length: 3644 seconds
#
# Revision: 0
# Processed by: cddbd v1.5.2PL0 Copyright (c) Steve Scherf et al.
# Submitted via: CDex 1.60beta1-cs1
#
DISCID=2f0e3a05
DTITLE=Dexter Gordon - At The Village Gate 1976
DYEAR=1900
DGENRE=Jazz
TTITLE0=Fried Bananas
TTITLE1=Gordon introduces the band
TTITLE2=Strollin'
TTITLE3=You've Changed
TTITLE4=Bags' Groove
EXTD=
EXTT0=
EXTT1=
EXTT2=
EXTT3=
EXTT4=
PLAYORDER=
